{
	"asset":{
		"generator":"Khronos glTF Blender I/O v4.2.60",
		"version":"2.0"
	},
	"scene":0,
	"scenes":[
		{
			"name":"Scene",
			"nodes":[
				27,
				28
			]
		}
	],
	"nodes":[
		{
			"name":"Object_10",
			"rotation":[
				-0.70710688829422,
				0,
				0,
				0.7071066498756409
			],
			"translation":[
				-97.65223693847656,
				51.39977264404297,
				35.24739074707031
			]
		},
		{
			"name":"Dummy003_01",
			"rotation":[
				5.319352736066207e-10,
				2.0396688895155113e-15,
				2.1526969020554175e-22,
				1
			],
			"translation":[
				-109.41838836669922,
				-35.24738311767578,
				-1.9110982975689694e-05
			]
		},
		{
			"name":"Dummy004_02",
			"rotation":[
				1.7763568394002505e-15,
				2.040182826756258e-15,
				2.1635496086273413e-22,
				1
			],
			"translation":[
				-109.41838836669922,
				-3.814697265625e-06,
				-35.24736785888672
			]
		},
		{
			"name":"Dummy005_03",
			"rotation":[
				5.319283347127168e-10,
				2.0396688895155113e-15,
				2.152697154490907e-22,
				1
			],
			"translation":[
				-109.41838836669922,
				35.24736022949219,
				-3.7771978895762004e-06
			]
		},
		{
			"name":"Dummy002_04",
			"rotation":[
				1.7763568394002505e-15,
				2.040182826756258e-15,
				2.1635496086273413e-22,
				1
			],
			"translation":[
				-109.41838836669922,
				-7.62939453125e-06,
				35.247371673583984
			]
		},
		{
			"children":[
				1,
				2,
				3,
				4
			],
			"name":"Dummy001_00",
			"rotation":[
				-0.7071067690849304,
				-2.9703629778055074e-08,
				-2.9703619119914038e-08,
				0.7071067690849304
			],
			"translation":[
				11.766152381896973,
				51.39977264404297,
				9.998964287660783e-07
			]
		},
		{
			"children":[
				5
			],
			"name":"_rootJoint",
			"rotation":[
				-3.8359463161441454e-08,
				4.249036678061202e-08,
				-7.271917612614465e-16,
				1
			],
			"scale":[
				1,
				0.9999998807907104,
				0.9999998807907104
			]
		},
		{
			"mesh":0,
			"name":"Object_11",
			"skin":0
		},
		{
			"name":"Object_12",
			"rotation":[
				-0.70710688829422,
				0,
				0,
				0.7071066498756409
			],
			"translation":[
				-97.65223693847656,
				51.39977264404297,
				-35.24736785888672
			]
		},
		{
			"mesh":1,
			"name":"Object_13",
			"skin":0
		},
		{
			"name":"Object_14",
			"rotation":[
				-0.70710688829422,
				0,
				0,
				0.7071066498756409
			],
			"translation":[
				-97.65223693847656,
				16.15240478515625,
				8.226685167755932e-06
			]
		},
		{
			"mesh":2,
			"name":"Object_15",
			"skin":0
		},
		{
			"name":"Object_16",
			"rotation":[
				-0.70710688829422,
				0,
				0,
				0.7071066498756409
			],
			"translation":[
				-97.65223693847656,
				86.64715576171875,
				8.226685167755932e-06
			]
		},
		{
			"mesh":3,
			"name":"Object_17",
			"skin":0
		},
		{
			"name":"Object_6",
			"rotation":[
				-0.70710688829422,
				0,
				0,
				0.7071066498756409
			],
			"translation":[
				11.766153335571289,
				51.3997802734375,
				2.246755684609525e-06
			]
		},
		{
			"mesh":4,
			"name":"Object_7",
			"skin":0
		},
		{
			"name":"Object_8",
			"rotation":[
				-0.70710688829422,
				0,
				0,
				0.7071066498756409
			],
			"translation":[
				5.21990966796875,
				89.67671203613281,
				2.6208598613739014
			]
		},
		{
			"name":"Plane004",
			"rotation":[
				-0.70710688829422,
				0,
				0,
				0.7071066498756409
			],
			"translation":[
				-97.65223693847656,
				51.39977264404297,
				35.24739074707031
			]
		},
		{
			"name":"Plane005",
			"rotation":[
				-0.70710688829422,
				0,
				0,
				0.7071066498756409
			],
			"translation":[
				-97.65223693847656,
				51.39977264404297,
				-35.24736785888672
			]
		},
		{
			"name":"Plane006",
			"rotation":[
				-0.70710688829422,
				0,
				0,
				0.7071066498756409
			],
			"translation":[
				-97.65223693847656,
				16.15240478515625,
				8.226685167755932e-06
			]
		},
		{
			"name":"Plane007",
			"rotation":[
				-0.70710688829422,
				0,
				0,
				0.7071066498756409
			],
			"translation":[
				-97.65223693847656,
				86.64715576171875,
				8.226685167755932e-06
			]
		},
		{
			"name":"Sphere001",
			"rotation":[
				-0.70710688829422,
				0,
				0,
				0.7071066498756409
			],
			"translation":[
				11.766153335571289,
				51.3997802734375,
				2.246755684609525e-06
			]
		},
		{
			"name":"Sphere004",
			"rotation":[
				-0.70710688829422,
				0,
				0,
				0.7071066498756409
			],
			"translation":[
				5.21990966796875,
				89.67671203613281,
				2.6208598613739014
			]
		},
		{
			"children":[
				0,
				7,
				8,
				9,
				10,
				11,
				12,
				13,
				14,
				15,
				16,
				17,
				18,
				19,
				20,
				21,
				22,
				6
			],
			"name":"Object_4"
		},
		{
			"children":[
				23
			],
			"name":"RootNode"
		},
		{
			"children":[
				24
			],
			"name":"Object_2"
		},
		{
			"children":[
				25
			],
			"name":"648d44d75b514670a133ce6e37da93c6.fbx",
			"rotation":[
				0.70710688829422,
				0,
				0,
				0.7071066498756409
			]
		},
		{
			"children":[
				26
			],
			"name":"Sketchfab_model",
			"rotation":[
				-0.70710688829422,
				0,
				0,
				0.7071066498756409
			]
		},
		{
			"mesh":5,
			"name":"Cube"
		}
	],
	"animations":[
		{
			"channels":[
				{
					"sampler":0,
					"target":{
						"node":6,
						"path":"translation"
					}
				},
				{
					"sampler":1,
					"target":{
						"node":6,
						"path":"rotation"
					}
				},
				{
					"sampler":2,
					"target":{
						"node":6,
						"path":"scale"
					}
				},
				{
					"sampler":3,
					"target":{
						"node":5,
						"path":"translation"
					}
				},
				{
					"sampler":4,
					"target":{
						"node":5,
						"path":"rotation"
					}
				},
				{
					"sampler":5,
					"target":{
						"node":5,
						"path":"scale"
					}
				},
				{
					"sampler":6,
					"target":{
						"node":1,
						"path":"translation"
					}
				},
				{
					"sampler":7,
					"target":{
						"node":1,
						"path":"rotation"
					}
				},
				{
					"sampler":8,
					"target":{
						"node":1,
						"path":"scale"
					}
				},
				{
					"sampler":9,
					"target":{
						"node":2,
						"path":"translation"
					}
				},
				{
					"sampler":10,
					"target":{
						"node":2,
						"path":"rotation"
					}
				},
				{
					"sampler":11,
					"target":{
						"node":2,
						"path":"scale"
					}
				},
				{
					"sampler":12,
					"target":{
						"node":3,
						"path":"translation"
					}
				},
				{
					"sampler":13,
					"target":{
						"node":3,
						"path":"rotation"
					}
				},
				{
					"sampler":14,
					"target":{
						"node":3,
						"path":"scale"
					}
				},
				{
					"sampler":15,
					"target":{
						"node":4,
						"path":"translation"
					}
				},
				{
					"sampler":16,
					"target":{
						"node":4,
						"path":"rotation"
					}
				},
				{
					"sampler":17,
					"target":{
						"node":4,
						"path":"scale"
					}
				}
			],
			"name":"Take 001",
			"samplers":[
				{
					"input":36,
					"interpolation":"STEP",
					"output":37
				},
				{
					"input":36,
					"interpolation":"STEP",
					"output":38
				},
				{
					"input":36,
					"interpolation":"STEP",
					"output":39
				},
				{
					"input":40,
					"interpolation":"LINEAR",
					"output":41
				},
				{
					"input":40,
					"interpolation":"LINEAR",
					"output":42
				},
				{
					"input":36,
					"interpolation":"STEP",
					"output":43
				},
				{
					"input":40,
					"interpolation":"LINEAR",
					"output":44
				},
				{
					"input":40,
					"interpolation":"LINEAR",
					"output":45
				},
				{
					"input":40,
					"interpolation":"LINEAR",
					"output":46
				},
				{
					"input":40,
					"interpolation":"LINEAR",
					"output":47
				},
				{
					"input":40,
					"interpolation":"LINEAR",
					"output":48
				},
				{
					"input":40,
					"interpolation":"LINEAR",
					"output":49
				},
				{
					"input":40,
					"interpolation":"LINEAR",
					"output":50
				},
				{
					"input":40,
					"interpolation":"LINEAR",
					"output":51
				},
				{
					"input":40,
					"interpolation":"LINEAR",
					"output":52
				},
				{
					"input":40,
					"interpolation":"LINEAR",
					"output":53
				},
				{
					"input":40,
					"interpolation":"LINEAR",
					"output":54
				},
				{
					"input":40,
					"interpolation":"LINEAR",
					"output":55
				}
			]
		}
	],
	"materials":[
		{
			"alphaMode":"BLEND",
			"doubleSided":true,
			"emissiveFactor":[
				1,
				1,
				1
			],
			"emissiveTexture":{
				"index":0
			},
			"name":"fire_mtl",
			"pbrMetallicRoughness":{
				"baseColorTexture":{
					"index":1
				},
				"metallicFactor":0
			}
		},
		{
			"doubleSided":true,
			"emissiveFactor":[
				1,
				1,
				1
			],
			"emissiveTexture":{
				"index":2
			},
			"name":"rocket_mtl",
			"normalTexture":{
				"index":3
			},
			"occlusionTexture":{
				"index":4
			},
			"pbrMetallicRoughness":{
				"baseColorTexture":{
					"index":5
				},
				"metallicRoughnessTexture":{
					"index":4
				}
			}
		},
		{
			"doubleSided":true,
			"name":"Material",
			"pbrMetallicRoughness":{
				"baseColorFactor":[
					0.800000011920929,
					0.800000011920929,
					0.800000011920929,
					1
				],
				"metallicFactor":0,
				"roughnessFactor":0.5
			}
		}
	],
	"meshes":[
		{
			"name":"Plane004_fire_mtl_0",
			"primitives":[
				{
					"attributes":{
						"POSITION":0,
						"NORMAL":1,
						"TEXCOORD_0":2,
						"TEXCOORD_1":3,
						"JOINTS_0":4,
						"WEIGHTS_0":5
					},
					"indices":6,
					"material":0
				}
			]
		},
		{
			"name":"Plane005_fire_mtl_0",
			"primitives":[
				{
					"attributes":{
						"POSITION":8,
						"NORMAL":9,
						"TEXCOORD_0":10,
						"TEXCOORD_1":11,
						"JOINTS_0":12,
						"WEIGHTS_0":13
					},
					"indices":6,
					"material":0
				}
			]
		},
		{
			"name":"Plane006_fire_mtl_0",
			"primitives":[
				{
					"attributes":{
						"POSITION":14,
						"NORMAL":15,
						"TEXCOORD_0":16,
						"TEXCOORD_1":17,
						"JOINTS_0":18,
						"WEIGHTS_0":19
					},
					"indices":6,
					"material":0
				}
			]
		},
		{
			"name":"Plane007_fire_mtl_0",
			"primitives":[
				{
					"attributes":{
						"POSITION":20,
						"NORMAL":21,
						"TEXCOORD_0":22,
						"TEXCOORD_1":23,
						"JOINTS_0":24,
						"WEIGHTS_0":25
					},
					"indices":6,
					"material":0
				}
			]
		},
		{
			"name":"Sphere001_rocket_mtl_0",
			"primitives":[
				{
					"attributes":{
						"POSITION":26,
						"NORMAL":27,
						"TEXCOORD_0":28,
						"JOINTS_0":29,
						"WEIGHTS_0":30
					},
					"indices":31,
					"material":1
				}
			]
		},
		{
			"name":"Cube",
			"primitives":[
				{
					"attributes":{
						"POSITION":32,
						"NORMAL":33,
						"TEXCOORD_0":34
					},
					"indices":35,
					"material":2
				}
			]
		}
	],
	"textures":[
		{
			"sampler":0,
			"source":0
		},
		{
			"sampler":0,
			"source":1
		},
		{
			"sampler":0,
			"source":2
		},
		{
			"sampler":0,
			"source":3
		},
		{
			"sampler":0,
			"source":4
		},
		{
			"sampler":0,
			"source":5
		}
	],
		"images":[
		{
			"mimeType":"image/jpeg",
			"name":"fire_mtl_emissive",
			"uri":"textures/fire_mtl_emissive.jpg"
		},
		{
			"mimeType":"image/png",
			"name":"fire_mtl_baseColor",
			"uri":"textures/fire_mtl_baseColor.png"
		},
		{
			"mimeType":"image/jpeg",
			"name":"rocket_mtl_emissive",
			"uri":"textures/rocket_mtl_emissive.jpg"
		},
		{
			"mimeType":"image/png",
			"name":"rocket_mtl_normal",
			"uri":"textures/rocket_mtl_normal.png"
		},
		{
			"mimeType":"image/png",
			"name":"rocket_mtl_metallicRoughness",
			"uri":"textures/rocket_mtl_metallicRoughness.png"
		},
		{
			"mimeType":"image/jpeg",
			"name":"rocket_mtl_baseColor",
			"uri":"textures/rocket_mtl_baseColor.jpg"
		}
	],
	"skins":[
		{
			"inverseBindMatrices":7,
			"joints":[
				6,
				5,
				1,
				2,
				3,
				4
			],
			"name":"Object_4"
		}
	],
	"accessors":[
		{
			"bufferView":0,
			"componentType":5126,
			"count":16,
			"max":[
				-97.65223693847656,
				71.27326965332031,
				55.12087631225586
			],
			"min":[
				-160.69363403320312,
				31.52630043029785,
				15.37391185760498
			],
			"type":"VEC3"
		},
		{
			"bufferView":1,
			"componentType":5126,
			"count":16,
			"type":"VEC3"
		},
		{
			"bufferView":2,
			"componentType":5126,
			"count":16,
			"type":"VEC2"
		},
		{
			"bufferView":3,
			"componentType":5126,
			"count":16,
			"type":"VEC2"
		},
		{
			"bufferView":4,
			"componentType":5121,
			"count":16,
			"type":"VEC4"
		},
		{
			"bufferView":5,
			"componentType":5126,
			"count":16,
			"type":"VEC4"
		},
		{
			"bufferView":6,
			"componentType":5123,
			"count":24,
			"type":"SCALAR"
		},
		{
			"bufferView":7,
			"componentType":5126,
			"count":6,
			"type":"MAT4"
		},
		{
			"bufferView":8,
			"componentType":5126,
			"count":16,
			"max":[
				-97.65223693847656,
				71.27326202392578,
				-15.373892784118652
			],
			"min":[
				-160.69363403320312,
				31.52630043029785,
				-55.12085723876953
			],
			"type":"VEC3"
		},
		{
			"bufferView":9,
			"componentType":5126,
			"count":16,
			"type":"VEC3"
		},
		{
			"bufferView":10,
			"componentType":5126,
			"count":16,
			"type":"VEC2"
		},
		{
			"bufferView":11,
			"componentType":5126,
			"count":16,
			"type":"VEC2"
		},
		{
			"bufferView":12,
			"componentType":5121,
			"count":16,
			"type":"VEC4"
		},
		{
			"bufferView":13,
			"componentType":5126,
			"count":16,
			"type":"VEC4"
		},
		{
			"bufferView":14,
			"componentType":5126,
			"count":16,
			"max":[
				-97.65223693847656,
				36.02589416503906,
				19.873485565185547
			],
			"min":[
				-160.69363403320312,
				-3.72107195854187,
				-19.873477935791016
			],
			"type":"VEC3"
		},
		{
			"bufferView":15,
			"componentType":5126,
			"count":16,
			"type":"VEC3"
		},
		{
			"bufferView":16,
			"componentType":5126,
			"count":16,
			"type":"VEC2"
		},
		{
			"bufferView":17,
			"componentType":5126,
			"count":16,
			"type":"VEC2"
		},
		{
			"bufferView":18,
			"componentType":5121,
			"count":16,
			"type":"VEC4"
		},
		{
			"bufferView":19,
			"componentType":5126,
			"count":16,
			"type":"VEC4"
		},
		{
			"bufferView":20,
			"componentType":5126,
			"count":16,
			"max":[
				-97.65223693847656,
				106.52064514160156,
				19.873489379882812
			],
			"min":[
				-160.69363403320312,
				66.773681640625,
				-19.87347412109375
			],
			"type":"VEC3"
		},
		{
			"bufferView":21,
			"componentType":5126,
			"count":16,
			"type":"VEC3"
		},
		{
			"bufferView":22,
			"componentType":5126,
			"count":16,
			"type":"VEC2"
		},
		{
			"bufferView":23,
			"componentType":5126,
			"count":16,
			"type":"VEC2"
		},
		{
			"bufferView":24,
			"componentType":5121,
			"count":16,
			"type":"VEC4"
		},
		{
			"bufferView":25,
			"componentType":5126,
			"count":16,
			"type":"VEC4"
		},
		{
			"bufferView":26,
			"componentType":5126,
			"count":998,
			"max":[
				125.76433563232422,
				104.4362564086914,
				53.03649139404297
			],
			"min":[
				-102.11593627929688,
				-1.6366655826568604,
				-53.036441802978516
			],
			"type":"VEC3"
		},
		{
			"bufferView":27,
			"componentType":5126,
			"count":998,
			"type":"VEC3"
		},
		{
			"bufferView":28,
			"componentType":5126,
			"count":998,
			"type":"VEC2"
		},
		{
			"bufferView":29,
			"componentType":5121,
			"count":998,
			"type":"VEC4"
		},
		{
			"bufferView":30,
			"componentType":5126,
			"count":998,
			"type":"VEC4"
		},
		{
			"bufferView":31,
			"componentType":5123,
			"count":4536,
			"type":"SCALAR"
		},
		{
			"bufferView":32,
			"componentType":5126,
			"count":24,
			"max":[
				1,
				1,
				1
			],
			"min":[
				-1,
				-1,
				-1
			],
			"type":"VEC3"
		},
		{
			"bufferView":33,
			"componentType":5126,
			"count":24,
			"type":"VEC3"
		},
		{
			"bufferView":34,
			"componentType":5126,
			"count":24,
			"type":"VEC2"
		},
		{
			"bufferView":35,
			"componentType":5123,
			"count":36,
			"type":"SCALAR"
		},
		{
			"bufferView":36,
			"componentType":5126,
			"count":2,
			"max":[
				6.666666666666667
			],
			"min":[
				0
			],
			"type":"SCALAR"
		},
		{
			"bufferView":37,
			"componentType":5126,
			"count":2,
			"type":"VEC3"
		},
		{
			"bufferView":38,
			"componentType":5126,
			"count":2,
			"type":"VEC4"
		},
		{
			"bufferView":39,
			"componentType":5126,
			"count":2,
			"type":"VEC3"
		},
		{
			"bufferView":40,
			"componentType":5126,
			"count":161,
			"max":[
				6.666666666666667
			],
			"min":[
				0
			],
			"type":"SCALAR"
		},
		{
			"bufferView":41,
			"componentType":5126,
			"count":161,
			"type":"VEC3"
		},
		{
			"bufferView":42,
			"componentType":5126,
			"count":161,
			"type":"VEC4"
		},
		{
			"bufferView":43,
			"componentType":5126,
			"count":2,
			"type":"VEC3"
		},
		{
			"bufferView":44,
			"componentType":5126,
			"count":161,
			"type":"VEC3"
		},
		{
			"bufferView":45,
			"componentType":5126,
			"count":161,
			"type":"VEC4"
		},
		{
			"bufferView":46,
			"componentType":5126,
			"count":161,
			"type":"VEC3"
		},
		{
			"bufferView":47,
			"componentType":5126,
			"count":161,
			"type":"VEC3"
		},
		{
			"bufferView":48,
			"componentType":5126,
			"count":161,
			"type":"VEC4"
		},
		{
			"bufferView":49,
			"componentType":5126,
			"count":161,
			"type":"VEC3"
		},
		{
			"bufferView":50,
			"componentType":5126,
			"count":161,
			"type":"VEC3"
		},
		{
			"bufferView":51,
			"componentType":5126,
			"count":161,
			"type":"VEC4"
		},
		{
			"bufferView":52,
			"componentType":5126,
			"count":161,
			"type":"VEC3"
		},
		{
			"bufferView":53,
			"componentType":5126,
			"count":161,
			"type":"VEC3"
		},
		{
			"bufferView":54,
			"componentType":5126,
			"count":161,
			"type":"VEC4"
		},
		{
			"bufferView":55,
			"componentType":5126,
			"count":161,
			"type":"VEC3"
		}
	],
	"bufferViews":[
		{
			"buffer":0,
			"byteLength":192,
			"byteOffset":0,
			"target":34962
		},
		{
			"buffer":0,
			"byteLength":192,
			"byteOffset":192,
			"target":34962
		},
		{
			"buffer":0,
			"byteLength":128,
			"byteOffset":384,
			"target":34962
		},
		{
			"buffer":0,
			"byteLength":128,
			"byteOffset":512,
			"target":34962
		},
		{
			"buffer":0,
			"byteLength":64,
			"byteOffset":640,
			"target":34962
		},
		{
			"buffer":0,
			"byteLength":256,
			"byteOffset":704,
			"target":34962
		},
		{
			"buffer":0,
			"byteLength":48,
			"byteOffset":960,
			"target":34963
		},
		{
			"buffer":0,
			"byteLength":384,
			"byteOffset":1008
		},
		{
			"buffer":0,
			"byteLength":192,
			"byteOffset":1392,
			"target":34962
		},
		{
			"buffer":0,
			"byteLength":192,
			"byteOffset":1584,
			"target":34962
		},
		{
			"buffer":0,
			"byteLength":128,
			"byteOffset":1776,
			"target":34962
		},
		{
			"buffer":0,
			"byteLength":128,
			"byteOffset":1904,
			"target":34962
		},
		{
			"buffer":0,
			"byteLength":64,
			"byteOffset":2032,
			"target":34962
		},
		{
			"buffer":0,
			"byteLength":256,
			"byteOffset":2096,
			"target":34962
		},
		{
			"buffer":0,
			"byteLength":192,
			"byteOffset":2352,
			"target":34962
		},
		{
			"buffer":0,
			"byteLength":192,
			"byteOffset":2544,
			"target":34962
		},
		{
			"buffer":0,
			"byteLength":128,
			"byteOffset":2736,
			"target":34962
		},
		{
			"buffer":0,
			"byteLength":128,
			"byteOffset":2864,
			"target":34962
		},
		{
			"buffer":0,
			"byteLength":64,
			"byteOffset":2992,
			"target":34962
		},
		{
			"buffer":0,
			"byteLength":256,
			"byteOffset":3056,
			"target":34962
		},
		{
			"buffer":0,
			"byteLength":192,
			"byteOffset":3312,
			"target":34962
		},
		{
			"buffer":0,
			"byteLength":192,
			"byteOffset":3504,
			"target":34962
		},
		{
			"buffer":0,
			"byteLength":128,
			"byteOffset":3696,
			"target":34962
		},
		{
			"buffer":0,
			"byteLength":128,
			"byteOffset":3824,
			"target":34962
		},
		{
			"buffer":0,
			"byteLength":64,
			"byteOffset":3952,
			"target":34962
		},
		{
			"buffer":0,
			"byteLength":256,
			"byteOffset":4016,
			"target":34962
		},
		{
			"buffer":0,
			"byteLength":11976,
			"byteOffset":4272,
			"target":34962
		},
		{
			"buffer":0,
			"byteLength":11976,
			"byteOffset":16248,
			"target":34962
		},
		{
			"buffer":0,
			"byteLength":7984,
			"byteOffset":28224,
			"target":34962
		},
		{
			"buffer":0,
			"byteLength":3992,
			"byteOffset":36208,
			"target":34962
		},
		{
			"buffer":0,
			"byteLength":15968,
			"byteOffset":40200,
			"target":34962
		},
		{
			"buffer":0,
			"byteLength":9072,
			"byteOffset":56168,
			"target":34963
		},
		{
			"buffer":0,
			"byteLength":288,
			"byteOffset":65240,
			"target":34962
		},
		{
			"buffer":0,
			"byteLength":288,
			"byteOffset":65528,
			"target":34962
		},
		{
			"buffer":0,
			"byteLength":192,
			"byteOffset":65816,
			"target":34962
		},
		{
			"buffer":0,
			"byteLength":72,
			"byteOffset":66008,
			"target":34963
		},
		{
			"buffer":0,
			"byteLength":8,
			"byteOffset":66080
		},
		{
			"buffer":0,
			"byteLength":24,
			"byteOffset":66088
		},
		{
			"buffer":0,
			"byteLength":32,
			"byteOffset":66112
		},
		{
			"buffer":0,
			"byteLength":24,
			"byteOffset":66144
		},
		{
			"buffer":0,
			"byteLength":644,
			"byteOffset":66168
		},
		{
			"buffer":0,
			"byteLength":1932,
			"byteOffset":66812
		},
		{
			"buffer":0,
			"byteLength":2576,
			"byteOffset":68744
		},
		{
			"buffer":0,
			"byteLength":24,
			"byteOffset":71320
		},
		{
			"buffer":0,
			"byteLength":1932,
			"byteOffset":71344
		},
		{
			"buffer":0,
			"byteLength":2576,
			"byteOffset":73276
		},
		{
			"buffer":0,
			"byteLength":1932,
			"byteOffset":75852
		},
		{
			"buffer":0,
			"byteLength":1932,
			"byteOffset":77784
		},
		{
			"buffer":0,
			"byteLength":2576,
			"byteOffset":79716
		},
		{
			"buffer":0,
			"byteLength":1932,
			"byteOffset":82292
		},
		{
			"buffer":0,
			"byteLength":1932,
			"byteOffset":84224
		},
		{
			"buffer":0,
			"byteLength":2576,
			"byteOffset":86156
		},
		{
			"buffer":0,
			"byteLength":1932,
			"byteOffset":88732
		},
		{
			"buffer":0,
			"byteLength":1932,
			"byteOffset":90664
		},
		{
			"buffer":0,
			"byteLength":2576,
			"byteOffset":92596
		},
		{
			"buffer":0,
			"byteLength":1932,
			"byteOffset":95172
		}
	],
	"samplers":[
		{
			"magFilter":9729,
			"minFilter":9987
		}
	],
	"buffers":[
		{
			"byteLength":97104,
			"uri":"untitled.bin"
		}
	]
}
